<svg id="Layer_1" data-name="Layer 1" xmlns="http://www.w3.org/2000/svg" viewBox="0 0 177 147.8"><defs><style>.cls-1{fill:none;stroke:#c2c2c0;stroke-miterlimit:10;stroke-width:3px;}</style></defs><title>1</title><path class="cls-1" d="M873.06,540v-.4c0-38.6,22.6-72.4,58.2-72.4s57.79,33.4,57.79,72v.4c0,38.6-22.59,72.4-58.19,72.4S873.06,578.59,873.06,540Zm105.19,0v-.4c0-32.6-18.39-63-47.39-63s-47,30-47,62.6v.4c0,32.4,18.4,63,47.4,63S978.25,572.39,978.25,540Z" transform="translate(-871.56 -465.69)"/><path class="cls-1" d="M1036.86,479.39l-27,9.2-2.8-8.2,32-11.8h8v141h-10.2Z" transform="translate(-871.56 -465.69)"/></svg>