<svg id="Layer_1" data-name="Layer 1" xmlns="http://www.w3.org/2000/svg" viewBox="0 0 235.2 147.8"><defs><style>.cls-1{fill:none;stroke:#c2c2c0;stroke-miterlimit:10;stroke-width:3px;}</style></defs><title>2</title><path class="cls-1" d="M844.06,540v-.4c0-38.6,22.6-72.4,58.2-72.4s57.79,33.4,57.79,72v.4c0,38.6-22.59,72.4-58.19,72.4S844.06,578.64,844.06,540Zm105.19,0v-.4c0-32.6-18.39-63-47.39-63s-47,30-47,62.6v.4c0,32.4,18.4,63,47.4,63S949.25,572.44,949.25,540Z" transform="translate(-842.56 -465.74)"/><path class="cls-1" d="M980.66,601.84l52.19-47.2c23-21,31-33,31-47.8,0-18.2-14.8-30-31.6-30-17.79,0-29.39,9.2-41,26l-7.79-5.2c12.2-18.6,25.2-30,49.79-30,23.8,0,41.6,16.6,41.6,38.4v.4c0,19.2-10.4,32-35,54.4l-42.79,38.8h79.19v10H980.66Z" transform="translate(-842.56 -465.74)"/></svg>