<svg id="Layer_1" data-name="Layer 1" xmlns="http://www.w3.org/2000/svg" viewBox="0 0 237.8 147.8"><defs><style>.cls-1{fill:none;stroke:#c2c2c0;stroke-miterlimit:10;stroke-width:3px;}</style></defs><title>3</title><path class="cls-1" d="M843.06,540.08v-.4c0-38.6,22.6-72.39,58.2-72.39s57.8,33.39,57.8,72v.4c0,38.6-22.6,72.4-58.2,72.4S843.06,578.68,843.06,540.08Zm105.2,0v-.4c0-32.6-18.4-63-47.4-63s-47,30-47,62.6v.4c0,32.4,18.4,63,47.4,63S948.26,572.48,948.26,540.08Z" transform="translate(-841.56 -465.79)"/><path class="cls-1" d="M980.86,586.88l8-6.6c11.2,14.2,25.2,22.4,43.6,22.4,18.8,0,34.59-12.6,34.59-31v-.4c0-19.6-18.39-30.4-43.59-30.4h-7.6l-2.6-5.8,48.2-55.6h-73.4v-9.8h87.6v7.4l-47.4,54.2c26.6,1.6,49.6,14,49.6,39.6v.4c0,24.4-21.4,40.8-45.6,40.8C1009.46,612.08,992.26,601.68,980.86,586.88Z" transform="translate(-841.56 -465.79)"/></svg>