<svg id="Layer_1" data-name="Layer 1" xmlns="http://www.w3.org/2000/svg" viewBox="0 0 253.8 147.8"><defs><style>.cls-1{fill:none;stroke:#c2c2c0;stroke-miterlimit:10;stroke-width:3px;}</style></defs><title>4</title><path class="cls-1" d="M834.66,540.82v-.4c0-38.6,22.6-72.39,58.2-72.39s57.8,33.39,57.8,72v.4c0,38.6-22.6,72.4-58.2,72.4S834.66,579.42,834.66,540.82Zm105.2,0v-.4c0-32.6-18.4-63-47.4-63s-47,30-47,62.6v.4c0,32.4,18.4,63,47.4,63S939.86,573.22,939.86,540.82Z" transform="translate(-833.16 -466.53)"/><path class="cls-1" d="M1052.66,576.22h-75.8l-3.6-7.8,80-99h9.4v97.8h22.8v9h-22.8v34.2h-10Zm0-9v-82.8l-66.8,82.8Z" transform="translate(-833.16 -466.53)"/></svg>