<svg id="Layer_1" data-name="Layer 1" xmlns="http://www.w3.org/2000/svg" viewBox="0 0 1001.1 244.62"><defs><style>.cls-1{font-size:109.54px;font-family:TimesNewRomanPSMT, Times New Roman;}.cls-1,.cls-4{fill:#1456a3;}.cls-2{letter-spacing:-0.02em;}.cls-3{letter-spacing:-0.04em;}</style></defs><title>english</title><text class="cls-1" transform="translate(278.36 91.03)">InvisiScar<tspan x="-278.36" y="120">Resurfacing</tspan><tspan class="cls-2" x="250.87" y="120"> </tspan><tspan class="cls-3" x="276.28" y="120">T</tspan><tspan x="339.33" y="120">reatment</tspan></text><path class="cls-4" d="M1185.36,436l.34,7.17h-.86a8.67,8.67,0,0,0-.67-2.71,4.54,4.54,0,0,0-1.86-1.92,6.42,6.42,0,0,0-3.06-.62H1175v23.34c0,1.88.2,3.05.61,3.51a3.36,3.36,0,0,0,2.64.95h1v.83h-13v-.83h1.08a3.11,3.11,0,0,0,2.75-1.17,6.83,6.83,0,0,0,.5-3.29V437.91H1167a10.26,10.26,0,0,0-3,.31,4.26,4.26,0,0,0-2,1.65,6.74,6.74,0,0,0-1,3.29h-.85l.36-7.17Z" transform="translate(-428.94 -418.13)"/><path class="cls-4" d="M1205.73,466.54l-11.81-25.71v20.42c0,1.88.21,3.05.61,3.51a3.31,3.31,0,0,0,2.64.95h1.08v.83h-10.64v-.83h1.09a3.09,3.09,0,0,0,2.74-1.17,6.83,6.83,0,0,0,.5-3.29v-20a7,7,0,0,0-.45-2.93,2.54,2.54,0,0,0-1.16-1.1,6.27,6.27,0,0,0-2.72-.44V436h8.66l11.08,23.91L1218.26,436h8.65v.83h-1.06a3.13,3.13,0,0,0-2.77,1.18,6.81,6.81,0,0,0-.5,3.29v20q0,2.82.63,3.51a3.33,3.33,0,0,0,2.64.95h1.06v.83h-13v-.83H1215a3.06,3.06,0,0,0,2.75-1.17,6.83,6.83,0,0,0,.5-3.29V440.83l-11.79,25.71Z" transform="translate(-428.94 -418.13)"/></svg>