<svg id="Layer_1" data-name="Layer 1" xmlns="http://www.w3.org/2000/svg" viewBox="0 0 482.7 132.4"><defs><style>.cls-1{fill:#213f7e;}</style></defs><title>logo</title><path class="cls-1" d="M824,482H810.71c-3.38.06-5,1-5.76,2.53l-.12.23V485h0L803,489.29h0l-26.64,76.5L746,485l0-.23h0a9.05,9.05,0,0,0-6-2.76l-2,1H726v-1h-7V604h7V494.57L771,605h1l40-110.45V605h19V482h-7Z" transform="translate(-719 -474)"/><path class="cls-1" d="M1189,594h1.16c1.35,0,2.45-.45,2.45-1.55s-.71-1.61-2.26-1.61a6.13,6.13,0,0,0-1.35.13Zm0,6h-2V589.43a24.58,24.58,0,0,1,4.32-.32,7.45,7.45,0,0,1,3.92.77,2.88,2.88,0,0,1,1.09,2.32c0,1.16-1,2.06-2.33,2.45v-.19a7.15,7.15,0,0,1,1.26,2.58,17.67,17.67,0,0,0,.77,3h-2.64a22.65,22.65,0,0,1-.84-2.9c-.19-1.16-.83-1.68-2.19-1.1H1189Zm-6.31-5.86a8.19,8.19,0,0,0,8.25,8.44,8.1,8.1,0,0,0,8.06-8.38,8.16,8.16,0,1,0-16.31-.06m19,0a10.86,10.86,0,1,1-10.82-10.57,10.61,10.61,0,0,1,10.82,10.57" transform="translate(-719 -474)"/><path class="cls-1" d="M1131.72,598.64c-11.38.91-18.27-5.73-20.61-10.28-3.29-6.59-4.78-15.26-4.78-25.62a82.13,82.13,0,0,1,1.75-17.62c1.1-5,2.05-9.22,4.87-13.09,3.89-5.08,10.32-9.48,19-8.8,8.44.67,14.18,4.2,18.1,8.49v58c-3.88,4.49-9.66,8.21-18.28,8.89M1150,474v48.29a34.08,34.08,0,0,0-9.94-4.74,45.43,45.43,0,0,0-13.25-1.76,37.72,37.72,0,0,0-16,3.34,36.18,36.18,0,0,0-12.46,9.48,45.11,45.11,0,0,0-8.19,14.75,58.41,58.41,0,0,0-3,19.14,51.82,51.82,0,0,0,3.31,19.32,39,39,0,0,0,8.9,13.69,35.7,35.7,0,0,0,13.16,8.17,46.69,46.69,0,0,0,16,2.72A31.13,31.13,0,0,0,1150,599v6h19V474Z" transform="translate(-719 -474)"/><path class="cls-1" d="M969,533V517H950v88h19V552.9h0v-.43a21.85,21.85,0,0,1,.64-4.28c2.3-7.87,9.38-25.09,27.71-26.56l1-5.83c-7.84,0-23.15,5.46-29.37,17" transform="translate(-719 -474)"/><path class="cls-1" d="M1054,585.57c-3.59,6.26-10,12.48-21.44,13.39-5,.39-8.63-.72-10.92-3.06l-.26-.27a20.65,20.65,0,0,1-3.77-6.76,25.28,25.28,0,0,1-1.32-8.24,24.52,24.52,0,0,1,.55-5.23h0a12.42,12.42,0,0,1,1.55-3.43,17.46,17.46,0,0,1,7.91-6.59c9.56-4.11,22.74-4.47,27.69-4.45Zm10.2-63c-5.7-4.31-14.43-6.65-26.19-6.78a44.55,44.55,0,0,0-14.42,1.9c-1,.28-2,.59-3,.93a39.65,39.65,0,0,0-10.9,6.48l4.88,2.81s19.94-11.58,34.88-3.6a9.45,9.45,0,0,1,1.71,1.41c2.63,3.12,2.8,7.24,2.8,12.81v18.24a136.15,136.15,0,0,0-20.57-.88,58.53,58.53,0,0,0-18.21,3.34,30.12,30.12,0,0,0-13.07,8.94q-5,6-5,16a19.92,19.92,0,0,0,7.41,16.13q7.41,6.15,19.61,6.14a62.15,62.15,0,0,0,11.15-.87,39.56,39.56,0,0,0,8.19-2.37,28.6,28.6,0,0,0,6-3.42,28.3,28.3,0,0,0,4.44-4.21V605h19V541q0-11.75-8.8-18.41" transform="translate(-719 -474)"/><path class="cls-1" d="M909,517v67.5a5.3,5.3,0,0,1-.33,1.58c-3.55,6.48-10,12.95-21.65,13.87-8.74.68-13-4.38-15.13-9.39a11.66,11.66,0,0,1-.58-2,30.93,30.93,0,0,1-.31-4.38V517H852v63.14c0,10.47,1.9,14.84,6.62,19.46q6,5.88,19.44,6.43a30.49,30.49,0,0,0,3.22.16,46,46,0,0,0,11-1.24,32.44,32.44,0,0,0,5.74-1.84A27.07,27.07,0,0,0,909,594.87V605h19V517Z" transform="translate(-719 -474)"/></svg>