<svg id="Layer_1" data-name="Layer 1" xmlns="http://www.w3.org/2000/svg" viewBox="0 0 1056.87 87.87"><defs><style>.cls-1{fill:#0b2b4a;}</style></defs><title>prove</title><path class="cls-1" d="M676.92,513.16h-3.16v-2h3.16V497.54h9.78c9.24,0,15.63,6.34,15.63,14.62v.08c0,8.28-6.39,14.7-15.63,14.7h-9.78Zm9.78,11.77c8.19,0,13.36-5.59,13.36-12.61v-.08c0-7-5.17-12.69-13.36-12.69h-7.6v11.6h9.75v2H679.1v11.77Z" transform="translate(-431.13 -496.28)"/><path class="cls-1" d="M708.88,518.63V505.52h2v12.73c0,4.41,2.48,7.31,6.81,7.31a7.35,7.35,0,0,0,7.43-7.65V505.52h1.9c.79,0,1.17-.93,1.13-1.56h-1v-3.15h2.61v2.69a3.78,3.78,0,0,1-2.61,3.78v19.66h-2.06v-4a8.38,8.38,0,0,1-7.72,4.5C712,527.45,708.88,523.75,708.88,518.63Z" transform="translate(-431.13 -496.28)"/><path class="cls-1" d="M733.57,516.31v-.08a11.08,11.08,0,0,1,11-11.22,10.91,10.91,0,0,1,3.57.59c2.1.67,4.62,1.09,4.62-1.64h-1v-3.15h2.6v2.69c0,2.19-.67,3.53-2.39,4.46a11.24,11.24,0,0,1,3.52,8.19v.08a11,11,0,1,1-22,.08Zm19.79,0v-.08a9,9,0,0,0-8.82-9.28c-5.09,0-8.74,4.16-8.74,9.2v.08a9,9,0,0,0,8.82,9.28C749.7,525.51,753.36,521.36,753.36,516.31Zm-10,12.73h2.56v2.82h-2.56Z" transform="translate(-431.13 -496.28)"/><path class="cls-1" d="M760.45,516.31v-.08A11,11,0,0,1,779.94,509l-1.47,1.52c-1.84-1.9-4-3.53-7.14-3.53-4.87,0-8.65,4.07-8.65,9.2v.08a9,9,0,0,0,8.82,9.28,9.55,9.55,0,0,0,7.18-3.57l1.43,1.26a11,11,0,0,1-19.66-6.89Z" transform="translate(-431.13 -496.28)"/><path class="cls-1" d="M797,516.31v-.08A11,11,0,0,1,816.52,509l-1.47,1.52c-1.84-1.9-3.94-3.53-7.14-3.53-4.87,0-8.65,4.07-8.65,9.2v.08a9,9,0,0,0,8.82,9.28,9.53,9.53,0,0,0,7.18-3.57l1.43,1.26A11,11,0,0,1,797,516.31Z" transform="translate(-431.13 -496.28)"/><path class="cls-1" d="M822.49,496.28h2v13.23a8.4,8.4,0,0,1,7.73-4.5c5.42,0,8.57,3.7,8.57,8.83v13.1h-2.05V514.21c0-4.41-2.48-7.31-6.81-7.31a7.35,7.35,0,0,0-7.44,7.65v12.39h-2Z" transform="translate(-431.13 -496.28)"/><path class="cls-1" d="M847.81,518.63V505.52h2.06v12.73c0,4.41,2.48,7.31,6.8,7.31a7.35,7.35,0,0,0,7.44-7.65V505.52H866c.8,0,1.18-.93,1.13-1.56h-1v-3.15h2.6v2.69a3.77,3.77,0,0,1-2.6,3.78v19.66h-2.06v-4a8.39,8.39,0,0,1-7.73,4.5C851,527.45,847.81,523.75,847.81,518.63Zm12.06-21.55,2.56,1.26-4.5,4.32h-1.76Z" transform="translate(-431.13 -496.28)"/><path class="cls-1" d="M874,505.52H876v4a8.38,8.38,0,0,1,7.72-4.5c5.42,0,8.57,3.7,8.57,8.83v13.1h-2.05V514.21c0-4.41-2.48-7.31-6.81-7.31a7.35,7.35,0,0,0-7.43,7.65v12.39H874Z" transform="translate(-431.13 -496.28)"/><path class="cls-1" d="M899.3,530.47l1.22-1.68a14,14,0,0,0,8.65,3c4.92,0,8.41-2.82,8.41-8.32v-3.11a10.66,10.66,0,0,1-9,5,10.14,10.14,0,0,1-10.29-10.09v-.08A10.19,10.19,0,0,1,908.63,505a10.67,10.67,0,0,1,9,4.79v-4.28h2v18.1a9.89,9.89,0,0,1-2.73,7.27,10.82,10.82,0,0,1-7.77,2.86A16.15,16.15,0,0,1,899.3,530.47Zm18.4-15.25v-.08c0-5-4.41-8.15-8.86-8.15a7.92,7.92,0,0,0-8.28,8.11v.08a8.14,8.14,0,0,0,8.28,8.19C913.29,523.37,917.7,520.1,917.7,515.22Z" transform="translate(-431.13 -496.28)"/><path class="cls-1" d="M940,505.52h2.06v3.82c1.39-2.23,3.32-4.33,7.14-4.33a7.7,7.7,0,0,1,7.23,4.63A8.49,8.49,0,0,1,964.2,505c5.08,0,8.23,3.57,8.23,9v13h-2.06V514.21c0-4.62-2.39-7.31-6.34-7.31-3.61,0-6.77,2.78-6.77,7.57v12.47h-2V514.09c0-4.45-2.44-7.19-6.26-7.19s-6.85,3.37-6.85,7.69v12.35H940Z" transform="translate(-431.13 -496.28)"/><path class="cls-1" d="M980,500.27h2.57v2.81H980Zm.26,5.25h2.05v21.42h-2.05Z" transform="translate(-431.13 -496.28)"/><path class="cls-1" d="M990.44,505.52h2.06v4a8.39,8.39,0,0,1,7.73-4.5c5.42,0,8.57,3.7,8.57,8.83v13.1h-2.06V514.21c0-4.41-2.48-7.31-6.81-7.31a7.35,7.35,0,0,0-7.43,7.65v12.39h-2.06Z" transform="translate(-431.13 -496.28)"/><path class="cls-1" d="M1016.19,496.28h2v13.23A8.4,8.4,0,0,1,1026,505c5.42,0,8.57,3.7,8.57,8.83v13.1h-2V514.21c0-4.41-2.48-7.31-6.81-7.31a7.35,7.35,0,0,0-7.44,7.65v12.39h-2Z" transform="translate(-431.13 -496.28)"/><path class="cls-1" d="M1054.83,496.28h2.05v30.66h-2.05Z" transform="translate(-431.13 -496.28)"/><path class="cls-1" d="M1063.23,520.73v-.09c0-4.45,3.82-7,9.36-7a26,26,0,0,1,7.1.92v-.92c0-4.33-2.64-6.56-7.06-6.56a14.36,14.36,0,0,0-6.72,1.73l-.75-1.81a17.22,17.22,0,0,1,7.6-1.85,9.22,9.22,0,0,1,6.76,2.36,8.1,8.1,0,0,1,2.19,6v13.36h-2v-3.57a9.73,9.73,0,0,1-8.19,4.08C1067.51,527.45,1063.23,525.18,1063.23,520.73Zm16.5-1.81v-2.44a28.47,28.47,0,0,0-7.26-1c-4.54,0-7.06,2-7.06,5l-7.56-1.14c0,3.11,10.5,6.13,13.78,6.13C1076,525.51,1079.73,522.83,1079.73,518.92Zm-7.43-21.38H1074l4.2,5.12h-2l-3.11-2.85-3.11,2.85h-1.89Z" transform="translate(-431.13 -496.28)"/><path class="cls-1" d="M1089.1,505.52h2.06v3.82c1.38-2.23,3.31-4.33,7.14-4.33a7.68,7.68,0,0,1,7.22,4.63,8.51,8.51,0,0,1,7.73-4.63c5.08,0,8.23,3.57,8.23,9v13h-2V514.21c0-4.62-2.4-7.31-6.35-7.31-3.61,0-6.76,2.78-6.76,7.57v12.47h-2.06V514.09c0-4.45-2.43-7.19-6.26-7.19s-6.84,3.37-6.84,7.69v12.35h-2.06Z" transform="translate(-431.13 -496.28)"/><path class="cls-1" d="M1139.79,524.25l1.22-1.63a12.58,12.58,0,0,0,7.69,2.81c2.89,0,5.16-1.6,5.16-4.07v-.09c0-2.52-2.69-3.44-5.67-4.28-3.48-1-7.35-2.06-7.35-5.88V511c0-3.44,2.9-5.92,7.06-5.92a14.43,14.43,0,0,1,7.6,2.35l-1.09,1.72a12.35,12.35,0,0,0-6.6-2.14c-2.94,0-4.87,1.6-4.87,3.74v.08c0,2.4,2.9,3.28,6,4.16,3.44,1,7,2.23,7,6v.08c0,3.83-3.27,6.26-7.39,6.26A14.66,14.66,0,0,1,1139.79,524.25Z" transform="translate(-431.13 -496.28)"/><path class="cls-1" d="M1160.75,520.73v-.09c0-4.45,3.82-7,9.36-7a25.94,25.94,0,0,1,7.1.92v-.92c0-4.33-2.64-6.56-7-6.56a14.3,14.3,0,0,0-6.72,1.73l-.76-1.81a17.22,17.22,0,0,1,7.6-1.85,9.26,9.26,0,0,1,6.77,2.36,8.14,8.14,0,0,1,2.18,6v13.36h-2v-3.57a9.73,9.73,0,0,1-8.19,4.08C1165,527.45,1160.75,525.18,1160.75,520.73Zm16.51-1.81v-2.44a28.62,28.62,0,0,0-7.27-1c-4.54,0-7.06,2-7.06,5v.08c0,3.11,2.94,4.91,6.22,4.91C1173.52,525.51,1177.26,522.83,1177.26,518.92Zm-10.63-20.58,2.56-1.26,3.7,5.58h-1.77Z" transform="translate(-431.13 -496.28)"/><path class="cls-1" d="M1186.62,505.52h2.06v4a8.39,8.39,0,0,1,7.73-4.5c5.42,0,8.57,3.7,8.57,8.83v13.1h-2.06V514.21c0-4.41-2.48-7.31-6.81-7.31a7.35,7.35,0,0,0-7.43,7.65v12.39h-2.06Z" transform="translate(-431.13 -496.28)"/><path class="cls-1" d="M1211.94,530.47l1.22-1.68a14,14,0,0,0,8.66,3c4.91,0,8.4-2.82,8.4-8.32v-3.11a10.66,10.66,0,0,1-9,5A10.14,10.14,0,0,1,1211,515.26v-.08A10.19,10.19,0,0,1,1221.27,505a10.67,10.67,0,0,1,9,4.79v-4.28h2.06v18.1a9.93,9.93,0,0,1-2.73,7.27,10.86,10.86,0,0,1-7.78,2.86A16.15,16.15,0,0,1,1211.94,530.47Zm18.4-15.25v-.08c0-5-4.41-8.15-8.86-8.15a7.92,7.92,0,0,0-8.27,8.11v.08a8.13,8.13,0,0,0,8.27,8.19C1225.93,523.37,1230.34,520.1,1230.34,515.22Z" transform="translate(-431.13 -496.28)"/><path class="cls-1" d="M432.1,580.87l1.22-1.68a14,14,0,0,0,8.65,3c4.92,0,8.4-2.82,8.4-8.32v-3.11a10.63,10.63,0,0,1-8.94,5,10.15,10.15,0,0,1-10.3-10.09v-.08a10.2,10.2,0,0,1,10.3-10.17,10.64,10.64,0,0,1,8.94,4.79v-4.28h2.06V574a9.93,9.93,0,0,1-2.73,7.27,10.84,10.84,0,0,1-7.77,2.86A16.15,16.15,0,0,1,432.1,580.87Zm18.4-15.25v-.08c0-5-4.41-8.15-8.86-8.15a7.92,7.92,0,0,0-8.28,8.11v.08a8.14,8.14,0,0,0,8.28,8.19C446.09,573.77,450.5,570.5,450.5,565.62Z" transform="translate(-431.13 -496.28)"/><path class="cls-1" d="M460.28,550.67h2.56v2.81h-2.56Zm.25,5.25h2.06v21.42h-2.06Z" transform="translate(-431.13 -496.28)"/><path class="cls-1" d="M468.93,571.13V571c0-4.45,3.83-7,9.37-7a26.06,26.06,0,0,1,7.1.92v-.92c0-4.33-2.65-6.56-7.06-6.56a14.36,14.36,0,0,0-6.72,1.73l-.75-1.81a17.22,17.22,0,0,1,7.6-1.85,9.22,9.22,0,0,1,6.76,2.36,8.1,8.1,0,0,1,2.19,6v13.36h-2v-3.57a9.75,9.75,0,0,1-8.19,4.08C473.22,577.85,468.93,575.58,468.93,571.13Zm16.51-1.81v-2.44a28.49,28.49,0,0,0-7.27-1c-4.53,0-7.05,2-7.05,5V571c0,3.11,2.94,4.91,6.21,4.91C481.7,575.91,485.44,573.23,485.44,569.32Zm-7.56-18,.08-.13c1.73,0,2.36-.5,2.36-1.17v0c0-.58-.46-1-1.22-1a2.89,2.89,0,0,0-2,.92l-1.26-1.34a4.28,4.28,0,0,1,3.32-1.47c1.93,0,3.24,1,3.24,2.81s-1.18,2.44-2.65,2.69l-.13.84h-1.38Z" transform="translate(-431.13 -496.28)"/><path class="cls-1" d="M494.81,555.92h2.05v3.82c1.39-2.23,3.32-4.33,7.14-4.33a7.7,7.7,0,0,1,7.23,4.63,8.51,8.51,0,0,1,7.73-4.63c5.08,0,8.23,3.57,8.23,9v13h-2.06V564.61c0-4.62-2.39-7.31-6.34-7.31-3.61,0-6.76,2.78-6.76,7.57v12.47H510V564.49c0-4.45-2.44-7.19-6.26-7.19s-6.85,3.37-6.85,7.69v12.35h-2.05Z" transform="translate(-431.13 -496.28)"/><path class="cls-1" d="M556,550H545.71v-2h22.68v2H558.14v27.39H556Z" transform="translate(-431.13 -496.28)"/><path class="cls-1" d="M575,547.94h2.19v13.61H596V547.94h2.18v29.4H596V563.56H577.21v13.78H575Z" transform="translate(-431.13 -496.28)"/><path class="cls-1" d="M618.12,547.73h2.1l13.69,29.61h-2.39l-3.74-8.23H610.43l-3.74,8.23h-2.27Zm8.74,19.4-7.73-17-7.78,17Zm-8.53-26.33H620l4.2,5.12h-2l-3.1-2.86L616,545.92h-1.89Z" transform="translate(-431.13 -496.28)"/><path class="cls-1" d="M640.12,547.94h2.06L654,565.33l11.8-17.39h2.06v29.4h-2.19V551.8L654,568.73h-.17L642.22,551.8v25.54h-2.1Z" transform="translate(-431.13 -496.28)"/><path class="cls-1" d="M686.53,555.92h2.4L697,575l8.19-19.11h2.31l-9.62,21.59h-1.77Z" transform="translate(-431.13 -496.28)"/><path class="cls-1" d="M710.35,571.13V571c0-4.45,3.82-7,9.36-7a26,26,0,0,1,7.1.92v-.92c0-4.33-2.64-6.56-7-6.56a14.3,14.3,0,0,0-6.72,1.73l-.76-1.81a17.22,17.22,0,0,1,7.6-1.85,9.26,9.26,0,0,1,6.77,2.36,8.14,8.14,0,0,1,2.18,6v13.36h-2v-3.57a9.73,9.73,0,0,1-8.19,4.08C714.63,577.85,710.35,575.58,710.35,571.13Zm16.51-1.81v-2.44a28.62,28.62,0,0,0-7.27-1c-4.54,0-7.06,2-7.06,5V571c0,3.11,2.94,4.91,6.22,4.91C723.12,575.91,726.86,573.23,726.86,569.32Zm-10.63-20.58,2.56-1.26,3.7,5.58h-1.77Z" transform="translate(-431.13 -496.28)"/><path class="cls-1" d="M747.39,573.06l1.43-1.64c3.23,3,6.22,4.37,10.54,4.37s7.44-2.48,7.44-5.84v-.09c0-3.1-1.64-4.91-8.32-6.25-7.06-1.43-9.91-3.83-9.91-8.28v-.08c0-4.37,4-7.73,9.45-7.73a14.63,14.63,0,0,1,10.08,3.57l-1.39,1.72a12.67,12.67,0,0,0-8.78-3.32c-4.32,0-7.18,2.48-7.18,5.55v.08c0,3.11,1.6,5,8.57,6.43,6.81,1.38,9.66,3.82,9.66,8.1v.09c0,4.75-4.07,8-9.74,8A16.74,16.74,0,0,1,747.39,573.06Z" transform="translate(-431.13 -496.28)"/><path class="cls-1" d="M776.16,547.94h20.92v2H778.34v11.56h16.85v2H778.34v11.81h18.95v2H776.16Zm9,31.5h2.56v2.82h-2.56Z" transform="translate(-431.13 -496.28)"/><path class="cls-1" d="M803,562.72v-.08c0-8,5.92-15.21,14.83-15.21s14.74,7.1,14.74,15.13v.08c0,8-5.92,15.21-14.83,15.21S803,570.75,803,562.72Zm27.3,0v-.08c0-7.27-5.29-13.23-12.56-13.23s-12.47,5.88-12.47,13.15v.08c0,7.27,5.29,13.23,12.56,13.23S830.3,570,830.3,562.72Z" transform="translate(-431.13 -496.28)"/><path class="cls-1" d="M850.29,574.65l1.22-1.63a12.58,12.58,0,0,0,7.68,2.81c2.9,0,5.17-1.6,5.17-4.07v-.09c0-2.52-2.69-3.44-5.67-4.28-3.49-1-7.35-2.06-7.35-5.88v-.09c0-3.44,2.9-5.92,7.06-5.92a14.43,14.43,0,0,1,7.6,2.35l-1.09,1.72a12.35,12.35,0,0,0-6.6-2.14c-2.94,0-4.87,1.6-4.87,3.74v.08c0,2.4,2.9,3.28,6,4.16,3.45,1,7.06,2.23,7.06,6v.08c0,3.83-3.28,6.26-7.39,6.26A14.66,14.66,0,0,1,850.29,574.65Z" transform="translate(-431.13 -496.28)"/><path class="cls-1" d="M871.25,571.13V571c0-4.45,3.82-7,9.36-7a26,26,0,0,1,7.1.92v-.92c0-4.33-2.64-6.56-7.05-6.56a14.37,14.37,0,0,0-6.73,1.73l-.75-1.81a17.22,17.22,0,0,1,7.6-1.85,9.22,9.22,0,0,1,6.76,2.36,8.1,8.1,0,0,1,2.19,6v13.36h-2v-3.57a9.73,9.73,0,0,1-8.19,4.08C875.53,577.85,871.25,575.58,871.25,571.13Zm16.5-1.81v-2.44a28.47,28.47,0,0,0-7.26-1c-4.54,0-7.06,2-7.06,5V571c0,3.11,2.94,4.91,6.22,4.91C884,575.91,887.75,573.23,887.75,569.32Z" transform="translate(-431.13 -496.28)"/><path class="cls-1" d="M896.7,569v-13.1h2.06v12.73c0,4.41,2.47,7.31,6.8,7.31a7.35,7.35,0,0,0,7.44-7.65V555.92h2v21.42h-2v-4a8.4,8.4,0,0,1-7.73,4.5C899.85,577.85,896.7,574.15,896.7,569Z" transform="translate(-431.13 -496.28)"/><path class="cls-1" d="M935.46,555.92h2.06v3.82c1.39-2.23,3.32-4.33,7.14-4.33a7.7,7.7,0,0,1,7.23,4.63,8.49,8.49,0,0,1,7.73-4.63c5.08,0,8.23,3.57,8.23,9v13h-2.06V564.61c0-4.62-2.39-7.31-6.34-7.31-3.61,0-6.76,2.78-6.76,7.57v12.47h-2.06V564.49c0-4.45-2.44-7.19-6.26-7.19s-6.85,3.37-6.85,7.69v12.35h-2.06Z" transform="translate(-431.13 -496.28)"/><path class="cls-1" d="M975,569v-13.1H977v12.73c0,4.41,2.48,7.31,6.81,7.31a7.35,7.35,0,0,0,7.43-7.65V555.92h2.06v21.42h-2.06v-4a8.38,8.38,0,0,1-7.73,4.5C978.13,577.85,975,574.15,975,569Zm8.11,10.42h2.56v2.82h-2.56Z" transform="translate(-431.13 -496.28)"/><path class="cls-1" d="M1001.15,555.92h2.06v4a8.39,8.39,0,0,1,7.73-4.5c5.42,0,8.57,3.7,8.57,8.83v13.1h-2.06V564.61c0-4.41-2.48-7.31-6.81-7.31a7.35,7.35,0,0,0-7.43,7.65v12.39h-2.06Z" transform="translate(-431.13 -496.28)"/><path class="cls-1" d="M1039.5,546.68h2v13.23a8.4,8.4,0,0,1,7.73-4.5c5.42,0,8.57,3.7,8.57,8.83v13.1h-2.06V564.61c0-4.41-2.47-7.31-6.8-7.31a7.35,7.35,0,0,0-7.44,7.65v12.39h-2Z" transform="translate(-431.13 -496.28)"/><path class="cls-1" d="M1065.28,550.67h2.56v2.81h-2.56Zm.26,5.25h2v21.42h-2Z" transform="translate(-431.13 -496.28)"/><path class="cls-1" d="M1074.23,566.67v-.08c0-6.22,4.37-11.18,10.16-11.18,6,0,9.83,4.88,9.83,11.22a5.63,5.63,0,0,1,0,.84h-17.77c.38,5.34,4.2,8.44,8.4,8.44a9.65,9.65,0,0,0,7.36-3.36l1.42,1.26a11.22,11.22,0,0,1-8.86,4C1079.1,577.85,1074.23,573.35,1074.23,566.67Zm17.77-1c-.3-4.32-2.78-8.32-7.69-8.32-4.24,0-7.52,3.58-7.9,8.32Zm-8.45-17.68h1.68l4.21,5.12h-2l-3.11-2.85-3.11,2.85h-1.89Zm-.33,31.5h2.56v2.82h-2.56Z" transform="translate(-431.13 -496.28)"/><path class="cls-1" d="M1099.81,569v-13.1h2.06v12.73c0,4.41,2.47,7.31,6.8,7.31a7.35,7.35,0,0,0,7.44-7.65V555.92h2.05v21.42h-2.05v-4a8.4,8.4,0,0,1-7.73,4.5C1103,577.85,1099.81,574.15,1099.81,569Z" transform="translate(-431.13 -496.28)"/><path class="cls-1" d="M1156.42,572.55c-1.84,2.82-4.57,5.3-8.82,5.3-5.16,0-10.41-4.16-10.41-11.14v-.08c0-7,5.25-11.22,10.41-11.22a10.29,10.29,0,0,1,8.82,5.13v-4.62h2.06v28.14h-2.06Zm.13-5.88v-.08a9,9,0,0,0-8.74-9.2c-4.66,0-8.4,3.4-8.4,9.16v.08c0,5.63,3.91,9.24,8.4,9.24A9,9,0,0,0,1156.55,566.67Z" transform="translate(-431.13 -496.28)"/><path class="cls-1" d="M1165.87,569v-13.1h2.06v12.73c0,4.41,2.48,7.31,6.81,7.31a7.35,7.35,0,0,0,7.43-7.65V555.92h2.06v21.42h-2.06v-4a8.39,8.39,0,0,1-7.73,4.5C1169,577.85,1165.87,574.15,1165.87,569Z" transform="translate(-431.13 -496.28)"/><path class="cls-1" d="M1190.27,571.13V571c0-4.45,3.82-7,9.37-7a26.06,26.06,0,0,1,7.1.92v-.92c0-4.33-2.65-6.56-7.06-6.56a14.36,14.36,0,0,0-6.72,1.73l-.75-1.81a17.22,17.22,0,0,1,7.6-1.85,9.22,9.22,0,0,1,6.76,2.36,8.1,8.1,0,0,1,2.19,6v13.36h-2v-3.57a9.75,9.75,0,0,1-8.19,4.08C1194.56,577.85,1190.27,575.58,1190.27,571.13Zm16.51-1.81v-2.44a28.56,28.56,0,0,0-7.27-1c-4.53,0-7,2-7,5V571c0,3.11,2.94,4.91,6.21,4.91C1203,575.91,1206.78,573.23,1206.78,569.32Zm-7.56-18,.08-.13c1.73,0,2.36-.5,2.36-1.17v0c0-.58-.47-1-1.22-1a2.89,2.89,0,0,0-2,.92l-1.26-1.34a4.28,4.28,0,0,1,3.32-1.47c1.93,0,3.23,1,3.23,2.81s-1.17,2.44-2.64,2.69l-.13.84h-1.38Z" transform="translate(-431.13 -496.28)"/><path class="cls-1" d="M1229.88,571.84v-14h-3.11v-1.89h3.11v-6.85h2.06v6.85h7.52v1.89h-7.52v13.82c0,3.07,1.8,4.16,4.28,4.16a7.13,7.13,0,0,0,3.15-.76V577a7.78,7.78,0,0,1-3.49.76C1232.57,577.72,1229.88,575.91,1229.88,571.84Z" transform="translate(-431.13 -496.28)"/><path class="cls-1" d="M1245.54,555.92h2.06V562c1.68-3.82,5.25-6.6,9.5-6.43v2.27h-.21c-5,0-9.29,3.74-9.29,10.71v8.78h-2.06Z" transform="translate(-431.13 -496.28)"/><path class="cls-1" d="M1259.82,566.71v-.08a11.08,11.08,0,0,1,11-11.22,11,11,0,0,1,11,11.14v.08a11,11,0,1,1-22,.08Zm19.79,0v-.08a9,9,0,0,0-8.82-9.28c-5.09,0-8.74,4.16-8.74,9.2v.08a9,9,0,0,0,8.82,9.28C1276,575.91,1279.61,571.76,1279.61,566.71Z" transform="translate(-431.13 -496.28)"/><path class="cls-1" d="M1288.17,555.92h2.06v4a8.39,8.39,0,0,1,7.73-4.5c5.42,0,8.57,3.7,8.57,8.83v13.1h-2.06V564.61c0-4.41-2.48-7.31-6.8-7.31a7.35,7.35,0,0,0-7.44,7.65v12.39h-2.06Z" transform="translate(-431.13 -496.28)"/><path class="cls-1" d="M1313.5,580.87l1.22-1.68a14,14,0,0,0,8.65,3c4.92,0,8.4-2.82,8.4-8.32v-3.11a10.64,10.64,0,0,1-8.94,5,10.15,10.15,0,0,1-10.3-10.09v-.08a10.2,10.2,0,0,1,10.3-10.17,10.64,10.64,0,0,1,8.94,4.79v-4.28h2.06V574a9.93,9.93,0,0,1-2.73,7.27,10.84,10.84,0,0,1-7.77,2.86A16.15,16.15,0,0,1,1313.5,580.87Zm18.4-15.25v-.08c0-5-4.41-8.15-8.86-8.15a7.92,7.92,0,0,0-8.28,8.11v.08a8.14,8.14,0,0,0,8.28,8.19C1327.49,573.77,1331.9,570.5,1331.9,565.62Z" transform="translate(-431.13 -496.28)"/><path class="cls-1" d="M1352.64,569.49v-.09c0-3.44,2.82-6,6.51-7.26-2.9-1.18-5.5-3.37-5.5-6.85v-.09c0-4.57,4.83-7.68,9.91-7.68s9.92,3.11,9.92,7.68v.09c0,3.48-2.61,5.67-5.51,6.85,3.7,1.21,6.52,3.82,6.52,7.26v.09c0,4.87-4.75,8.27-10.93,8.27S1352.64,574.36,1352.64,569.49Zm19.58.08v-.08c0-3.66-3.87-6.3-8.66-6.3s-8.65,2.64-8.65,6.3v.08c0,3.32,3.23,6.22,8.65,6.22S1372.22,572.89,1372.22,569.57Zm-1-14.28v-.09c0-3.31-3.36-5.71-7.65-5.71s-7.64,2.4-7.64,5.71v.09c0,3.61,3.48,6.05,7.64,6.05S1371.21,558.9,1371.21,555.29Z" transform="translate(-431.13 -496.28)"/><path class="cls-1" d="M1394.43,571.84v-14h-3.11v-1.89h3.11v-6.85h2.06v6.85H1404v1.89h-7.52v13.82c0,3.07,1.81,4.16,4.28,4.16a7.07,7.07,0,0,0,3.15-.76V577a7.76,7.76,0,0,1-3.48.76C1397.12,577.72,1394.43,575.91,1394.43,571.84Z" transform="translate(-431.13 -496.28)"/><path class="cls-1" d="M1409.68,569v-13.1h2.06v12.73c0,4.41,2.47,7.31,6.8,7.31a7.35,7.35,0,0,0,7.44-7.65V555.92h2v21.42h-2v-4a8.4,8.4,0,0,1-7.73,4.5C1412.83,577.85,1409.68,574.15,1409.68,569Z" transform="translate(-431.13 -496.28)"/><path class="cls-1" d="M1434.08,571.13V571c0-4.45,3.82-7,9.37-7a25.92,25.92,0,0,1,7.09.92v-.92c0-4.33-2.64-6.56-7-6.56a14.3,14.3,0,0,0-6.72,1.73l-.76-1.81a17.22,17.22,0,0,1,7.6-1.85,9.26,9.26,0,0,1,6.77,2.36,8.14,8.14,0,0,1,2.18,6v13.36h-2v-3.57a9.73,9.73,0,0,1-8.19,4.08C1438.36,577.85,1434.08,575.58,1434.08,571.13Zm16.51-1.81v-2.44a28.56,28.56,0,0,0-7.27-1c-4.54,0-7.06,2-7.06,5V571c0,3.11,2.94,4.91,6.22,4.91C1446.85,575.91,1450.59,573.23,1450.59,569.32Zm-7.44-21.38h1.68l4.2,5.12h-2l-3.11-2.85-3.11,2.85H1439Zm1.22-2.73,2.56-1.26,3.7,5.58h-1.77Z" transform="translate(-431.13 -496.28)"/><path class="cls-1" d="M1460,555.92H1462v4a8.39,8.39,0,0,1,7.73-4.5c5.42,0,8.57,3.7,8.57,8.83v13.1h-2.06V564.61c0-4.41-2.48-7.31-6.81-7.31A7.35,7.35,0,0,0,1462,565v12.39H1460Z" transform="translate(-431.13 -496.28)"/><path class="cls-1" d="M1485.23,573.77H1488v3.57h-2.78Z" transform="translate(-431.13 -496.28)"/></svg>