<svg id="Layer_1" data-name="Layer 1" xmlns="http://www.w3.org/2000/svg" viewBox="0 0 1021.89 126.15"><defs><style>.cls-1{fill:#194784;}</style></defs><title>result</title><path class="cls-1" d="M448.71,492.06h4.58V516.3l23.31-24.24h5.92l-17.4,17.74,18.15,22.86h-5.74L461.93,513l-8.64,8.76v10.91h-4.58Z" transform="translate(-448.71 -476.74)"/><path class="cls-1" d="M490.41,492.06h29.35v4.17H495v13.86h22.16v4.18H495v14.21h25.06v4.18H490.41Zm12.87-9.75h3.6l5.51,6.79H509l-4-3.48-3.88,3.48h-3.37Zm12-4.75,4.18,2-5.92,5.62h-3.13Z" transform="translate(-448.71 -476.74)"/><path class="cls-1" d="M540,496.29H526.37v-4.23h31.9v4.23H544.64v36.37H540Z" transform="translate(-448.71 -476.74)"/><path class="cls-1" d="M615.92,529a20.21,20.21,0,0,1-12.82,4.35c-12.35,0-20.65-9.68-20.65-20.88v-.11c0-11.2,8.41-21,20.77-21s20.64,9.69,20.64,20.88v.12A21.1,21.1,0,0,1,619,526l5.4,4.46-3.14,3.42Zm-3.37-3L605,519.61l3.08-3.43,7.48,6.79a17.12,17.12,0,0,0,3.54-10.5v-.11c0-9.23-6.73-16.77-16-16.77s-15.89,7.43-15.89,16.65v.12c0,9.22,6.73,16.76,16,16.76A15.23,15.23,0,0,0,612.55,526Z" transform="translate(-448.71 -476.74)"/><path class="cls-1" d="M632.91,515.66v-23.6h4.58v23.31c0,8.76,4.64,13.69,12.42,13.69,7.48,0,12.23-4.52,12.23-13.4v-23.6h4.59v23.25c0,11.84-6.79,18-16.94,18S632.91,527.15,632.91,515.66Z" transform="translate(-448.71 -476.74)"/><path class="cls-1" d="M691.14,491.77h4.3l18.5,40.89H709l-4.76-10.73h-22.1l-4.81,10.73h-4.7Zm11.31,26-9.22-20.71L684,517.81Zm-10.78-31.5.05-.11c2.56-.12,3.54-.76,3.54-1.86,0-.93-.64-1.45-1.85-1.45a4.21,4.21,0,0,0-3,1.39l-1.86-2a6.22,6.22,0,0,1,4.93-2.2c3,0,4.93,1.51,4.93,4.18v0c0,2.56-1.79,3.6-4,4.06l-.23,1.22h-2Z" transform="translate(-448.71 -476.74)"/><path class="cls-1" d="M750.07,496.29H736.44v-4.23h31.9v4.23H754.71v36.37h-4.64Z" transform="translate(-448.71 -476.74)"/><path class="cls-1" d="M776.93,492.06h17.45c5,0,9,1.5,11.54,4.06a11.17,11.17,0,0,1,3.14,8v.12c0,6.72-4.64,10.67-11,11.83l12.47,16.59h-5.63l-11.77-15.78h-11.6v15.78h-4.58ZM794,512.76c6.09,0,10.44-3.13,10.44-8.35v-.12c0-5-3.83-8-10.38-8H781.51v16.47Z" transform="translate(-448.71 -476.74)"/><path class="cls-1" d="M833.88,491.77h4.29l18.5,40.89h-4.93L847,521.93h-22.1l-4.81,10.73h-4.7Zm11.31,26L836,497.1l-9.28,20.71Zm-10.79-31.5.06-.11c2.55-.12,3.54-.76,3.54-1.86,0-.93-.64-1.45-1.86-1.45a4.18,4.18,0,0,0-3,1.39l-1.86-2a6.22,6.22,0,0,1,4.93-2.2c3,0,4.93,1.51,4.93,4.18v0c0,2.56-1.8,3.6-4,4.06l-.23,1.22h-2Z" transform="translate(-448.71 -476.74)"/><path class="cls-1" d="M865.08,492.06h4.59v40.6h-4.59Z" transform="translate(-448.71 -476.74)"/><path class="cls-1" d="M899,492.06h4.29l25.57,32.53V492.06h4.47v40.6h-3.65l-26.22-33.3v33.3H899Z" transform="translate(-448.71 -476.74)"/><path class="cls-1" d="M943,512.47v-.11c0-11.14,8.17-21,20.35-21,6.85,0,11.08,2,15.14,5.39l-3,3.48a17.29,17.29,0,0,0-12.35-4.64c-9,0-15.43,7.6-15.43,16.65v.12c0,9.68,6.21,16.87,16.07,16.87a19,19,0,0,0,11.71-4.06V515.08H963.16V511h16.76v16.19a24.61,24.61,0,0,1-16.3,6.2C950.86,533.35,943,524.07,943,512.47Z" transform="translate(-448.71 -476.74)"/><path class="cls-1" d="M990.25,492.06h4.58v18h23.43v-18h4.58v40.6h-4.58V514.39H994.83v18.27h-4.58Z" transform="translate(-448.71 -476.74)"/><path class="cls-1" d="M1034.73,492.06h4.58v40.6h-4.58Z" transform="translate(-448.71 -476.74)"/><path class="cls-1" d="M1051.2,492.06h29.35v4.17h-24.76v13.86h22.15v4.18h-22.15v14.21h25v4.18H1051.2Zm12.88-9.75h3.59l5.51,6.79h-3.42l-3.94-3.48-3.89,3.48h-3.36Zm-.52,53.25h4.58V540h-4.58Z" transform="translate(-448.71 -476.74)"/><path class="cls-1" d="M1090.06,492.06h4.64l14.79,22.15,14.79-22.15h4.64v40.6h-4.58V499.77l-14.79,21.75h-.23l-14.79-21.69v32.83h-4.47Z" transform="translate(-448.71 -476.74)"/><path class="cls-1" d="M1155.14,526.74l2.84-3.36c4.23,3.82,8.29,5.74,13.92,5.74,5.45,0,9-2.9,9-6.9v-.12c0-3.77-2-5.92-10.56-7.71-9.34-2-13.63-5.05-13.63-11.72v-.12c0-6.38,5.63-11.07,13.34-11.07a21.21,21.21,0,0,1,14.27,5L1181.7,500a17.85,17.85,0,0,0-11.71-4.41c-5.28,0-8.65,2.9-8.65,6.56v.11c0,3.83,2.09,6,11,7.89s13.23,5.28,13.23,11.49v.11c0,7-5.8,11.49-13.87,11.49A23.75,23.75,0,0,1,1155.14,526.74Z" transform="translate(-448.71 -476.74)"/><path class="cls-1" d="M1209.08,491.77h4.29l18.5,40.89h-4.93l-4.75-10.73h-22.1l-4.82,10.73h-4.69Zm11.31,26-9.22-20.71-9.28,20.71Zm-10.79-31.5.06-.11c2.55-.12,3.54-.76,3.54-1.86,0-.93-.64-1.45-1.86-1.45a4.22,4.22,0,0,0-3,1.39l-1.85-2a6.21,6.21,0,0,1,4.93-2.2c3,0,4.93,1.51,4.93,4.18v0c0,2.56-1.8,3.6-4,4.06l-.24,1.22h-2Z" transform="translate(-448.71 -476.74)"/><path class="cls-1" d="M1239.88,492.06h4.29l25.58,32.53V492.06h4.46v40.6h-3.65l-26.22-33.3v33.3h-4.46Z" transform="translate(-448.71 -476.74)"/><path class="cls-1" d="M1303.09,492.06h15.2c9.16,0,15.2,4.87,15.2,12.87v.12c0,8.76-7.31,13.28-16,13.28h-9.86v14.33h-4.59Zm14.62,22.09c6.73,0,11.14-3.59,11.14-8.93v-.11c0-5.8-4.35-8.82-10.91-8.82h-10.26v17.86Z" transform="translate(-448.71 -476.74)"/><path class="cls-1" d="M1341.84,492.06h4.58v18h23.43v-18h4.58v40.6h-4.58V514.39h-23.43v18.27h-4.58Z" transform="translate(-448.71 -476.74)"/><path class="cls-1" d="M1400.94,491.77h4.29l18.5,40.89h-4.93l-4.75-10.73H1392l-4.81,10.73h-4.7Zm11.31,26L1403,497.1l-9.28,20.71Zm-11-35.5h3.59l5.51,6.79H1407l-3.94-3.48-3.89,3.48h-3.36Zm7.88.7.06-.12c2.56-.11,3.54-.75,3.54-1.85,0-.93-.64-1.45-1.85-1.45a4.17,4.17,0,0,0-3,1.39l-1.86-2a6.2,6.2,0,0,1,4.93-2.21c3,0,4.93,1.51,4.93,4.18V481c0,2.55-1.79,3.59-4,4.06l-.23,1.22h-2Z" transform="translate(-448.71 -476.74)"/><path class="cls-1" d="M1431.74,492.06h4.64l14.79,22.15L1466,492.06h4.64v40.6H1466V499.77l-14.79,21.75H1451l-14.79-21.69v32.83h-4.46Z" transform="translate(-448.71 -476.74)"/><path class="cls-1" d="M761.44,596.34l2.84-3.36c4.24,3.82,8.3,5.74,13.92,5.74,5.45,0,9-2.9,9-6.9v-.12c0-3.77-2-5.92-10.56-7.71-9.33-2-13.63-5-13.63-11.72v-.12c0-6.38,5.63-11.07,13.34-11.07a21.21,21.21,0,0,1,14.27,5L788,569.6a17.85,17.85,0,0,0-11.71-4.41c-5.28,0-8.64,2.9-8.64,6.56v.11c0,3.83,2.08,6,11,7.89s13.22,5.28,13.22,11.49v.11c0,7-5.8,11.49-13.86,11.49A23.76,23.76,0,0,1,761.44,596.34Z" transform="translate(-448.71 -476.74)"/><path class="cls-1" d="M815.38,561.37h4.29l18.5,40.89h-4.93l-4.75-10.73h-22.1l-4.81,10.73h-4.7Zm11.31,26-9.22-20.71-9.28,20.71Z" transform="translate(-448.71 -476.74)"/><path class="cls-1" d="M844.09,585.26v-23.6h4.58V585c0,8.76,4.64,13.69,12.41,13.69,7.49,0,12.24-4.52,12.24-13.4v-23.6h4.58v23.25c0,11.84-6.78,18-16.93,18S844.09,596.75,844.09,585.26Z" transform="translate(-448.71 -476.74)"/><path class="cls-1" d="M903.42,591.35v-.11c0-4.82,3.48-8.24,8.35-10-3.77-1.74-7-4.64-7-9.34v-.11c0-6.27,6.44-10.73,13.87-10.73s13.86,4.46,13.86,10.73v.11c0,4.7-3.19,7.6-7,9.34,4.81,1.8,8.35,5.1,8.35,9.92v.11c0,6.91-6.61,11.55-15.25,11.55S903.42,598.14,903.42,591.35Zm25.87-.11v-.12c0-4.52-4.7-7.71-10.61-7.71s-10.62,3.19-10.62,7.71v.12c0,4.11,4,7.59,10.62,7.59S929.29,595.35,929.29,591.24Zm-1.33-19v-.11c0-4-4-7-9.28-7s-9.28,3-9.28,7v.11c0,4.41,4.11,7.43,9.28,7.43S928,576.62,928,572.21Z" transform="translate(-448.71 -476.74)"/><path class="cls-1" d="M970.82,565.89H957.19v-4.23h31.9v4.23H975.46v36.37h-4.64Z" transform="translate(-448.71 -476.74)"/><path class="cls-1" d="M997,585.26v-23.6h4.58V585c0,8.76,4.64,13.69,12.42,13.69,7.48,0,12.23-4.52,12.23-13.4v-23.6h4.59v23.25c0,11.84-6.79,18-16.94,18S997,596.75,997,585.26Z" transform="translate(-448.71 -476.74)"/><path class="cls-1" d="M1055.26,561.37h4.3l18.5,40.89h-4.93l-4.76-10.73h-22.1l-4.81,10.73h-4.7Zm11.31,26-9.22-20.71-9.28,20.71Zm-11-35.5h3.6l5.51,6.79h-3.42l-4-3.48-3.88,3.48h-3.37Zm2.67-3.54,4.18-2,4.87,7.6h-3.13Z" transform="translate(-448.71 -476.74)"/><path class="cls-1" d="M1086.06,561.66h4.29l25.58,32.53V561.66h4.47v40.6h-3.66L1090.53,569v33.3h-4.47Z" transform="translate(-448.71 -476.74)"/></svg>